<svg width="80" height="80" viewBox="0 0 80 80" fill="none" xmlns="http://www.w3.org/2000/svg">
<path d="M25.2627 53.2718L9.11893 47.3343C8.64424 47.1591 8.23465 46.8426 7.94536 46.4275C7.65607 46.0123 7.50098 45.5185 7.50098 45.0125C7.50098 44.5065 7.65607 44.0126 7.94536 43.5975C8.23465 43.1823 8.64424 42.8658 9.11893 42.6906L25.2627 36.7531C25.5988 36.63 25.9041 36.4351 26.1572 36.182C26.4103 35.9289 26.6052 35.6236 26.7283 35.2875L32.6658 19.1437C32.841 18.669 33.1575 18.2594 33.5727 17.9701C33.9878 17.6809 34.4817 17.5258 34.9877 17.5258C35.4937 17.5258 35.9875 17.6809 36.4027 17.9701C36.8178 18.2594 37.1343 18.669 37.3096 19.1437L43.2471 35.2875C43.3701 35.6236 43.565 35.9289 43.8182 36.182C44.0713 36.4351 44.3765 36.63 44.7127 36.7531L60.8564 42.6906C61.3311 42.8658 61.7407 43.1823 62.03 43.5975C62.3193 44.0126 62.4744 44.5065 62.4744 45.0125C62.4744 45.5185 62.3193 46.0123 62.03 46.4275C61.7407 46.8426 61.3311 47.1591 60.8564 47.3343L44.7127 53.2718C44.3765 53.3949 44.0713 53.5898 43.8182 53.8429C43.565 54.0961 43.3701 54.4013 43.2471 54.7375L37.3096 70.8812C37.1343 71.3559 36.8178 71.7655 36.4027 72.0548C35.9875 72.3441 35.4937 72.4992 34.9877 72.4992C34.4817 72.4992 33.9878 72.3441 33.5727 72.0548C33.1575 71.7655 32.841 71.3559 32.6658 70.8812L26.7283 54.7375C26.6052 54.4013 26.4103 54.0961 26.1572 53.8429C25.9041 53.5898 25.5988 53.3949 25.2627 53.2718Z" stroke="#FF6007" stroke-width="4" stroke-linecap="round" stroke-linejoin="round"/>
<path d="M55 5V20" stroke="#FF6007" stroke-width="4" stroke-linecap="round" stroke-linejoin="round"/>
<path d="M70 22.5V32.5" stroke="#FF6007" stroke-width="4" stroke-linecap="round" stroke-linejoin="round"/>
<path d="M47.5 12.5H62.5" stroke="#FF6007" stroke-width="4" stroke-linecap="round" stroke-linejoin="round"/>
<path d="M65 27.5H75" stroke="#FF6007" stroke-width="4" stroke-linecap="round" stroke-linejoin="round"/>
</svg>
